<svg width="24" height="23" viewBox="0 0 24 23" fill="none" xmlns="http://www.w3.org/2000/svg">
<path d="M13.0305 2.0442L2.04 0.479042C1.53 0.404511 1.0095 0.535293 0.6195 0.844668C0.2295 1.16389 0 1.62232 0 2.10045V21.854C0 22.3701 0.45 22.792 1.0005 22.792H4.251V17.8701C4.251 16.9603 5.031 16.229 6.0015 16.229H8.502C9.4725 16.229 10.2525 16.9603 10.2525 17.8701V22.792H14.502V3.66701C14.5005 2.85982 13.8795 2.17639 13.0305 2.0442V2.0442ZM5.5005 14.1197H4.0005C3.5865 14.1197 3.2505 13.8047 3.2505 13.4165C3.2505 13.0284 3.5865 12.7134 4.0005 12.7134H5.5005C5.9145 12.7134 6.2505 13.0284 6.2505 13.4165C6.2505 13.8047 5.9145 14.1197 5.5005 14.1197ZM5.5005 11.3072H4.0005C3.5865 11.3072 3.2505 10.9922 3.2505 10.604C3.2505 10.2159 3.5865 9.90092 4.0005 9.90092H5.5005C5.9145 9.90092 6.2505 10.2159 6.2505 10.604C6.2505 10.9922 5.9145 11.3072 5.5005 11.3072ZM5.5005 8.49467H4.0005C3.5865 8.49467 3.2505 8.17967 3.2505 7.79154C3.2505 7.40342 3.5865 7.08842 4.0005 7.08842H5.5005C5.9145 7.08842 6.2505 7.40342 6.2505 7.79154C6.2505 8.17967 5.9145 8.49467 5.5005 8.49467ZM5.5005 5.68217H4.0005C3.5865 5.68217 3.2505 5.36717 3.2505 4.97904C3.2505 4.59092 3.5865 4.27592 4.0005 4.27592H5.5005C5.9145 4.27592 6.2505 4.59092 6.2505 4.97904C6.2505 5.36717 5.9145 5.68217 5.5005 5.68217ZM10.5 14.1197H9C8.586 14.1197 8.25 13.8047 8.25 13.4165C8.25 13.0284 8.586 12.7134 9 12.7134H10.5C10.914 12.7134 11.25 13.0284 11.25 13.4165C11.25 13.8047 10.914 14.1197 10.5 14.1197ZM10.5 11.3072H9C8.586 11.3072 8.25 10.9922 8.25 10.604C8.25 10.2159 8.586 9.90092 9 9.90092H10.5C10.914 9.90092 11.25 10.2159 11.25 10.604C11.25 10.9922 10.914 11.3072 10.5 11.3072ZM10.5 8.49467H9C8.586 8.49467 8.25 8.17967 8.25 7.79154C8.25 7.40342 8.586 7.08842 9 7.08842H10.5C10.914 7.08842 11.25 7.40342 11.25 7.79154C11.25 8.17967 10.914 8.49467 10.5 8.49467ZM10.5 5.68217H9C8.586 5.68217 8.25 5.36717 8.25 4.97904C8.25 4.59092 8.586 4.27592 9 4.27592H10.5C10.914 4.27592 11.25 4.59092 11.25 4.97904C11.25 5.36717 10.914 5.68217 10.5 5.68217Z" fill="#232536"/>
<path d="M22.6205 10.4566L15.5 9.05875V22.7922H22.25C23.2145 22.7922 24.0005 22.0567 24.0005 21.1511V12.0597C24.0005 11.2848 23.4365 10.6253 22.6205 10.4566ZM20.2505 19.9797H18.7505C18.3365 19.9797 18.0005 19.6647 18.0005 19.2766C18.0005 18.8884 18.3365 18.5734 18.7505 18.5734H20.2505C20.6645 18.5734 21.0005 18.8884 21.0005 19.2766C21.0005 19.6647 20.6645 19.9797 20.2505 19.9797ZM20.2505 17.1672H18.7505C18.3365 17.1672 18.0005 16.8522 18.0005 16.4641C18.0005 16.0759 18.3365 15.7609 18.7505 15.7609H20.2505C20.6645 15.7609 21.0005 16.0759 21.0005 16.4641C21.0005 16.8522 20.6645 17.1672 20.2505 17.1672ZM20.2505 14.3547H18.7505C18.3365 14.3547 18.0005 14.0397 18.0005 13.6516C18.0005 13.2634 18.3365 12.9484 18.7505 12.9484H20.2505C20.6645 12.9484 21.0005 13.2634 21.0005 13.6516C21.0005 14.0397 20.6645 14.3547 20.2505 14.3547Z" fill="#FFD050"/>
</svg>
